<svg width="235" height="39" viewBox="0 0 235 39" fill="none" xmlns="http://www.w3.org/2000/svg">
<path d="M28.96 30.1973H0V2.19727H28.96V6.19727H4V26.1973H28.96V30.1973ZM25.56 18.1973H6V14.1973H25.56V18.1973Z" fill="white"/>
<path d="M59.5966 19.1973C59.5966 20.7173 59.3166 22.1439 58.7566 23.4773C58.1966 24.7839 57.4099 25.9439 56.3966 26.9573C55.4099 27.9706 54.2499 28.7706 52.9166 29.3573C51.6099 29.9173 50.1966 30.1973 48.6766 30.1973H42.5166C40.9966 30.1973 39.5699 29.9173 38.2366 29.3573C36.9299 28.7706 35.7699 27.9706 34.7566 26.9573C33.7699 25.9439 32.9966 24.7839 32.4366 23.4773C31.8766 22.1439 31.5966 20.7173 31.5966 19.1973C31.5966 17.6773 31.8766 16.2639 32.4366 14.9573C32.9966 13.6239 33.7699 12.4506 34.7566 11.4373C35.7699 10.4239 36.9299 9.63727 38.2366 9.07727C39.5699 8.4906 40.9966 8.19727 42.5166 8.19727H48.6766C50.1966 8.19727 51.6099 8.4906 52.9166 9.07727C54.2499 9.63727 55.4099 10.4239 56.3966 11.4373C57.4099 12.4506 58.1966 13.6239 58.7566 14.9573C59.3166 16.2639 59.5966 17.6773 59.5966 19.1973ZM55.5966 19.1973C55.5966 17.9173 55.2899 16.7573 54.6766 15.7173C54.0632 14.6506 53.2232 13.7973 52.1566 13.1573C51.1166 12.5173 49.9566 12.1973 48.6766 12.1973H42.5166C41.2366 12.1973 40.0766 12.5173 39.0366 13.1573C37.9966 13.7973 37.1566 14.6506 36.5166 15.7173C35.9032 16.7573 35.5966 17.9173 35.5966 19.1973C35.5966 20.4773 35.9032 21.6506 36.5166 22.7173C37.1566 23.7573 37.9966 24.5973 39.0366 25.2373C40.0766 25.8773 41.2366 26.1973 42.5166 26.1973H48.6766C49.9566 26.1973 51.1166 25.8773 52.1566 25.2373C53.2232 24.5973 54.0632 23.7573 54.6766 22.7173C55.2899 21.6506 55.5966 20.4773 55.5966 19.1973Z" fill="white"/>
<path d="M71.8131 30.1973H70.8131C69.5331 30.1973 68.3598 29.8906 67.2931 29.2773C66.2265 28.6373 65.3731 27.7973 64.7331 26.7573C64.1198 25.6906 63.8131 24.5039 63.8131 23.1973V0.197266H67.8131V23.1973C67.8131 24.0239 68.1065 24.7306 68.6931 25.3173C69.2798 25.9039 69.9865 26.1973 70.8131 26.1973H71.8131V30.1973Z" fill="white"/>
<path d="M83.1413 30.1973H82.1413C80.8613 30.1973 79.6879 29.8906 78.6212 29.2773C77.5546 28.6373 76.7012 27.7973 76.0612 26.7573C75.4479 25.6906 75.1413 24.5039 75.1413 23.1973V0.197266H79.1413V23.1973C79.1413 24.0239 79.4346 24.7306 80.0212 25.3173C80.6079 25.9039 81.3146 26.1973 82.1413 26.1973H83.1413V30.1973Z" fill="white"/>
<path d="M111.916 30.1973H96.9159C95.3959 30.1973 93.9693 29.9173 92.6359 29.3573C91.3293 28.7706 90.1693 27.9706 89.1559 26.9573C88.1693 25.9439 87.3959 24.7839 86.8359 23.4773C86.2759 22.1439 85.9959 20.7173 85.9959 19.1973V8.19727H89.9959V19.1973C89.9959 20.4773 90.3026 21.6506 90.9159 22.7173C91.5559 23.7573 92.3959 24.5973 93.4359 25.2373C94.4759 25.8506 95.6359 26.1706 96.9159 26.1973H107.916V8.19727H111.916V30.1973Z" fill="white"/>
<path d="M142.204 31.1973C142.204 32.4773 141.884 33.6506 141.244 34.7173C140.631 35.7839 139.791 36.6239 138.724 37.2373C137.657 37.8773 136.484 38.1973 135.204 38.1973H119.204V34.1973H135.204C136.031 34.1973 136.737 33.9039 137.324 33.3173C137.911 32.7306 138.204 32.0239 138.204 31.1973V12.1973H127.204C125.924 12.1973 124.764 12.5173 123.724 13.1573C122.684 13.7973 121.844 14.6506 121.204 15.7173C120.591 16.7573 120.284 17.9173 120.284 19.1973C120.284 20.4773 120.591 21.6506 121.204 22.7173C121.844 23.7573 122.684 24.5973 123.724 25.2373C124.764 25.8506 125.924 26.1706 127.204 26.1973H136.204V30.1973H127.204C125.684 30.1973 124.257 29.9173 122.924 29.3573C121.617 28.7706 120.457 27.9706 119.444 26.9573C118.457 25.9439 117.684 24.7839 117.124 23.4773C116.564 22.1439 116.284 20.7173 116.284 19.1973C116.284 17.6773 116.564 16.2639 117.124 14.9573C117.684 13.6239 118.457 12.4506 119.444 11.4373C120.457 10.4239 121.617 9.63727 122.924 9.07727C124.257 8.4906 125.684 8.19727 127.204 8.19727H142.204V31.1973Z" fill="white"/>
<path d="M172.997 30.1973H152.997C151.717 30.1973 150.544 29.8906 149.477 29.2773C148.411 28.6373 147.557 27.7973 146.917 26.7573C146.304 25.6906 145.997 24.5039 145.997 23.1973C145.997 21.8906 146.304 20.7173 146.917 19.6773C147.557 18.6106 148.411 17.7706 149.477 17.1573C150.544 16.5173 151.717 16.1973 152.997 16.1973H166.997V20.1973H152.997C152.171 20.1973 151.464 20.4906 150.878 21.0773C150.291 21.6639 149.997 22.3706 149.997 23.1973C149.997 24.0239 150.291 24.7306 150.878 25.3173C151.464 25.9039 152.171 26.1973 152.997 26.1973H168.997V15.1973C168.997 14.3706 168.704 13.6639 168.118 13.0773C167.531 12.4906 166.824 12.1973 165.997 12.1973H149.997V8.19727H165.997C167.304 8.19727 168.478 8.51727 169.518 9.15727C170.584 9.7706 171.424 10.6106 172.038 11.6773C172.678 12.7173 172.997 13.8906 172.997 15.1973V30.1973Z" fill="white"/>
<path d="M203.103 31.1973C203.103 32.4773 202.783 33.6506 202.143 34.7173C201.529 35.7839 200.689 36.6239 199.622 37.2373C198.556 37.8773 197.383 38.1973 196.103 38.1973H180.102V34.1973H196.103C196.929 34.1973 197.636 33.9039 198.223 33.3173C198.809 32.7306 199.103 32.0239 199.103 31.1973V12.1973H188.102C186.822 12.1973 185.662 12.5173 184.622 13.1573C183.583 13.7973 182.742 14.6506 182.102 15.7173C181.489 16.7573 181.182 17.9173 181.182 19.1973C181.182 20.4773 181.489 21.6506 182.102 22.7173C182.742 23.7573 183.583 24.5973 184.622 25.2373C185.662 25.8506 186.822 26.1706 188.102 26.1973H197.102V30.1973H188.102C186.582 30.1973 185.156 29.9173 183.822 29.3573C182.516 28.7706 181.356 27.9706 180.342 26.9573C179.356 25.9439 178.583 24.7839 178.023 23.4773C177.463 22.1439 177.182 20.7173 177.182 19.1973C177.182 17.6773 177.463 16.2639 178.023 14.9573C178.583 13.6239 179.356 12.4506 180.342 11.4373C181.356 10.4239 182.516 9.63727 183.822 9.07727C185.156 8.4906 186.582 8.19727 188.102 8.19727H203.103V31.1973Z" fill="white"/>
<path d="M234.456 15.1973C234.456 16.4773 234.136 17.6506 233.496 18.7173C232.883 19.7839 232.043 20.6373 230.976 21.2773C229.936 21.8906 228.763 22.1973 227.456 22.1973H212.136C212.696 23.3706 213.523 24.3306 214.616 25.0773C215.736 25.8239 216.989 26.1973 218.376 26.1973H231.456V30.1973H218.376C216.856 30.1973 215.429 29.9173 214.096 29.3573C212.789 28.7706 211.629 27.9706 210.616 26.9573C209.629 25.9439 208.856 24.7839 208.296 23.4773C207.736 22.1439 207.456 20.7173 207.456 19.1973C207.456 17.6773 207.736 16.2639 208.296 14.9573C208.856 13.6239 209.629 12.4506 210.616 11.4373C211.629 10.4239 212.789 9.63727 214.096 9.07727C215.429 8.4906 216.856 8.19727 218.376 8.19727H227.456C228.763 8.19727 229.936 8.51727 230.976 9.15727C232.043 9.7706 232.883 10.6106 233.496 11.6773C234.136 12.7173 234.456 13.8906 234.456 15.1973ZM227.456 18.1973C228.283 18.1973 228.989 17.9039 229.576 17.3173C230.163 16.7306 230.456 16.0239 230.456 15.1973C230.456 14.3706 230.163 13.6639 229.576 13.0773C228.989 12.4906 228.283 12.1973 227.456 12.1973H218.376C217.203 12.1973 216.123 12.4639 215.136 12.9973C214.176 13.5306 213.376 14.2506 212.736 15.1573C212.096 16.0639 211.696 17.0773 211.536 18.1973H227.456Z" fill="white"/>
</svg>
